<svg width="2096" height="723" viewBox="0 0 2096 723" fill="none" xmlns="http://www.w3.org/2000/svg">
<path d="M1548.83 422.148C1548.83 423.621 1550.03 424.815 1551.5 424.815C1552.97 424.815 1554.17 423.621 1554.17 422.148C1554.17 420.676 1552.97 419.482 1551.5 419.482C1550.03 419.482 1548.83 420.676 1548.83 422.148ZM1551.37 422.632C1619.66 440.724 1717.54 451.701 1788.44 429.488C1823.9 418.378 1852.67 398.943 1867.56 367.882C1882.44 336.825 1883.4 294.254 1863.47 236.984L1862.53 237.313C1882.4 294.443 1881.38 336.718 1866.65 367.45C1851.93 398.177 1823.44 417.474 1788.14 428.534C1717.51 450.663 1619.84 439.739 1551.63 421.665L1551.37 422.632ZM1863.47 236.984C1843.59 179.843 1841.28 135.769 1850.67 102.086C1860.05 68.4163 1881.13 45.0716 1908.15 29.4061C1962.24 -1.94867 2040.13 -2.51799 2095.42 6.64183L2095.58 5.65527C2040.21 -3.51825 1962.04 -2.98757 1907.65 28.541C1880.43 44.3172 1859.16 67.8599 1849.7 101.817C1840.25 135.762 1842.61 180.054 1862.53 237.313L1863.47 236.984Z" fill="url(#paint0_linear_1397_17)"/>
<path d="M476.833 400.148C476.833 401.621 478.027 402.815 479.5 402.815C480.973 402.815 482.167 401.621 482.167 400.148C482.167 398.675 480.973 397.481 479.5 397.481C478.027 397.481 476.833 398.675 476.833 400.148ZM785.333 408.148C785.333 409.62 786.527 410.814 788 410.814C789.473 410.814 790.667 409.62 790.667 408.148C790.667 406.675 789.473 405.481 788 405.481C786.527 405.481 785.333 406.675 785.333 408.148ZM479.814 400.537C520.303 367.922 556.111 349.622 602.338 349.598C648.603 349.573 705.374 367.853 787.778 408.596L788.222 407.699C705.793 366.944 648.847 348.573 602.337 348.598C555.79 348.622 519.764 367.072 479.186 399.759L479.814 400.537Z" fill="#FF4400"/>
<path d="M838.833 423.648C838.833 425.121 840.027 426.315 841.5 426.315C842.973 426.315 844.167 425.121 844.167 423.648C844.167 422.176 842.973 420.982 841.5 420.982C840.027 420.982 838.833 422.176 838.833 423.648ZM1140.33 423.648C1140.33 425.121 1141.53 426.315 1143 426.315C1144.47 426.315 1145.67 425.121 1145.67 423.648C1145.67 422.176 1144.47 420.982 1143 420.982C1141.53 420.982 1140.33 422.176 1140.33 423.648ZM841.354 424.127C904.336 443.379 942.876 457.874 984.111 460.294C1025.38 462.716 1069.32 453.05 1143.18 424.114L1142.82 423.183C1069 452.103 1025.22 461.705 984.17 459.295C943.091 456.885 904.723 442.451 841.646 423.17L841.354 424.127Z" fill="#FF4400"/>
<path d="M1193.83 405.149C1193.83 406.622 1195.03 407.816 1196.5 407.816C1197.97 407.816 1199.17 406.622 1199.17 405.149C1199.17 403.676 1197.97 402.482 1196.5 402.482C1195.03 402.482 1193.83 403.676 1193.83 405.149ZM1494.33 414.149C1494.33 415.621 1495.53 416.815 1497 416.815C1498.47 416.815 1499.67 415.621 1499.67 414.149C1499.67 412.676 1498.47 411.482 1497 411.482C1495.53 411.482 1494.33 412.676 1494.33 414.149ZM1196.71 405.601C1286.84 363.1 1355.44 374.943 1496.86 414.63L1497.14 413.667C1355.71 373.979 1286.78 362.024 1196.29 404.697L1196.71 405.601Z" fill="#FF4400"/>
<path d="M440.371 437.919C439.596 439.171 439.983 440.815 441.235 441.589C442.488 442.364 444.131 441.977 444.906 440.725C445.681 439.472 445.294 437.829 444.041 437.054C442.789 436.279 441.146 436.666 440.371 437.919ZM442.205 439.073C429.622 460.991 404.995 488.849 372.035 501.231C339.124 513.596 297.814 510.565 251.726 470.56L251.071 471.315C297.402 511.532 339.092 514.676 372.387 502.168C405.632 489.678 430.416 461.617 443.072 439.571L442.205 439.073ZM251.726 470.56C228.536 450.429 204.031 441.905 179.617 441.444C155.213 440.983 130.931 448.576 108.168 460.624C62.6497 484.714 23.1006 526.665 0.594087 557.97L1.40603 558.554C23.8581 527.324 63.299 485.502 108.636 461.508C131.3 449.513 155.412 441.987 179.598 442.444C203.772 442.901 228.052 451.334 251.071 471.315L251.726 470.56Z" fill="url(#paint1_linear_1397_17)"/>
<defs>
<linearGradient id="paint0_linear_1397_17" x1="1553" y1="416.148" x2="2093.8" y2="1" gradientUnits="userSpaceOnUse">
<stop stop-color="#FF4400"/>
<stop offset="1" stop-color="#FF4400" stop-opacity="0"/>
</linearGradient>
<linearGradient id="paint1_linear_1397_17" x1="8.85437" y1="545.566" x2="438.215" y2="558.646" gradientUnits="userSpaceOnUse">
<stop stop-color="#FF4400" stop-opacity="0"/>
<stop offset="1" stop-color="#FF4400"/>
</linearGradient>
</defs>
</svg>
